<svg width="24" height="24" viewBox="0 0 24 24" fill="none" xmlns="http://www.w3.org/2000/svg">
<path fill-rule="evenodd" clip-rule="evenodd" d="M12.0004 21.5999C14.5465 21.5999 16.9883 20.5885 18.7886 18.7881C20.589 16.9878 21.6004 14.546 21.6004 11.9999C21.6004 9.45382 20.589 7.01203 18.7886 5.21168C16.9883 3.41133 14.5465 2.3999 12.0004 2.3999C9.45431 2.3999 7.01251 3.41133 5.21217 5.21168C3.41182 7.01203 2.40039 9.45382 2.40039 11.9999C2.40039 14.546 3.41182 16.9878 5.21217 18.7881C7.01251 20.5885 9.45431 21.5999 12.0004 21.5999ZM12.8488 9.2483C13.0674 9.02198 13.1883 8.71886 13.1856 8.40422C13.1829 8.08958 13.0567 7.78861 12.8342 7.56612C12.6117 7.34363 12.3107 7.21743 11.9961 7.21469C11.6814 7.21196 11.3783 7.33291 11.152 7.5515L7.55199 11.1515C7.32702 11.3765 7.20065 11.6817 7.20065 11.9999C7.20065 12.3181 7.32702 12.6233 7.55199 12.8483L11.152 16.4483C11.3783 16.6669 11.6814 16.7878 11.9961 16.7851C12.3107 16.7824 12.6117 16.6562 12.8342 16.4337C13.0567 16.2112 13.1829 15.9102 13.1856 15.5956C13.1883 15.2809 13.0674 14.9778 12.8488 14.7515L11.2972 13.1999H15.6004C15.9186 13.1999 16.2239 13.0735 16.4489 12.8484C16.674 12.6234 16.8004 12.3182 16.8004 11.9999C16.8004 11.6816 16.674 11.3764 16.4489 11.1514C16.2239 10.9263 15.9186 10.7999 15.6004 10.7999H11.2972L12.8488 9.2483Z" fill="#2E384A"/>
</svg>
