<svg width="17" height="17" viewBox="0 0 17 17" fill="none" xmlns="http://www.w3.org/2000/svg">
<path fill-rule="evenodd" clip-rule="evenodd" d="M8.29456 3.13462C8.44458 2.98464 8.64802 2.90039 8.86016 2.90039C9.07229 2.90039 9.27573 2.98464 9.42576 3.13462L14.2258 7.93462C14.3757 8.08464 14.46 8.28809 14.46 8.50022C14.46 8.71235 14.3757 8.9158 14.2258 9.06582L9.42576 13.8658C9.27487 14.0115 9.07279 14.0922 8.86304 14.0904C8.65328 14.0885 8.45263 14.0044 8.3043 13.8561C8.15597 13.7077 8.07184 13.5071 8.07002 13.2973C8.06819 13.0876 8.14883 12.8855 8.29456 12.7346L11.729 9.30022H2.46016C2.24798 9.30022 2.0445 9.21593 1.89447 9.0659C1.74444 8.91588 1.66016 8.71239 1.66016 8.50022C1.66016 8.28805 1.74444 8.08456 1.89447 7.93453C2.0445 7.7845 2.24798 7.70022 2.46016 7.70022H11.729L8.29456 4.26582C8.14458 4.1158 8.06033 3.91235 8.06033 3.70022C8.06033 3.48809 8.14458 3.28464 8.29456 3.13462Z" fill="white"/>
</svg>
